<svg width="24" height="24" viewBox="0 0 24 24" fill="none" xmlns="http://www.w3.org/2000/svg">
<path d="M22.8544 18.24H23.4258C23.5773 18.24 23.7226 18.1894 23.8298 18.0994C23.9369 18.0094 23.9971 17.8873 23.9971 17.76C23.9971 17.6327 23.9369 17.5106 23.8298 17.4206C23.7226 17.3306 23.5773 17.28 23.4258 17.28H16.5695V17.063C16.5689 16.6115 16.3551 16.1786 15.975 15.8594C15.595 15.5401 15.0797 15.3605 14.5423 15.36H13.1413V4.67904C13.4348 4.60235 13.7021 4.46766 13.9208 4.28625C14.1395 4.10485 14.3032 3.88203 14.3983 3.63648L18.9383 4.59648L15.6941 9.36672C15.6941 9.37344 15.6941 9.38208 15.6873 9.38976C15.6445 9.45581 15.6213 9.5296 15.6199 9.6048C15.6107 10.0719 15.7123 10.5359 15.9187 10.9697C16.1251 11.4035 16.4323 11.7985 16.8222 12.1315C17.2122 12.4646 17.6772 12.7291 18.1901 12.9097C18.703 13.0903 19.2535 13.1833 19.8096 13.1833C20.3658 13.1833 20.9163 13.0903 21.4292 12.9097C21.9421 12.7291 22.4071 12.4646 22.797 12.1315C23.187 11.7985 23.4942 11.4035 23.7006 10.9697C23.907 10.5359 24.0086 10.0719 23.9994 9.6048C23.998 9.5296 23.9748 9.45581 23.932 9.38976C23.932 9.38208 23.932 9.37344 23.9252 9.36672L20.6113 4.48704L21.8808 3.95424C22.0164 3.89721 22.1195 3.79725 22.1674 3.67636C22.2153 3.55546 22.2041 3.42354 22.1362 3.3096C22.0683 3.19566 21.9494 3.10905 21.8054 3.06881C21.6615 3.02857 21.5045 3.03801 21.3689 3.09504L19.7485 3.77664L14.3983 2.64864C14.3082 2.3994 14.1464 2.17266 13.9271 1.98847C13.7079 1.80428 13.438 1.66833 13.1413 1.59264V0.48C13.1413 0.352696 13.0811 0.230606 12.9739 0.140589C12.8668 0.0505713 12.7215 0 12.5699 0C12.4184 0 12.2731 0.0505713 12.1659 0.140589C12.0588 0.230606 11.9986 0.352696 11.9986 0.48V1.59744C11.6978 1.6695 11.4234 1.804 11.2007 1.98854C10.9781 2.17309 10.8143 2.40174 10.7244 2.65344L5.35365 3.7824L2.79967 3.06432C2.65586 3.02409 2.49892 3.0335 2.36338 3.09048C2.22783 3.14747 2.12478 3.24735 2.0769 3.36816C2.02901 3.48897 2.04021 3.62082 2.10804 3.73469C2.17587 3.84856 2.29476 3.93513 2.43857 3.97536L4.49546 4.55136L1.217 9.36192C1.217 9.36864 1.217 9.37728 1.21014 9.38496C1.16732 9.45101 1.14419 9.5248 1.14272 9.6C1.13354 10.0671 1.23512 10.5311 1.44156 10.9649C1.64799 11.3987 1.95514 11.7937 2.34511 12.1267C2.73508 12.4598 3.20006 12.7243 3.71296 12.9049C4.22585 13.0855 4.7764 13.1785 5.33251 13.1785C5.88862 13.1785 6.43916 13.0855 6.95206 12.9049C7.46495 12.7243 7.92993 12.4598 8.3199 12.1267C8.70987 11.7937 9.01702 11.3987 9.22346 10.9649C9.42989 10.5311 9.53148 10.0671 9.52229 9.6C9.52083 9.5248 9.49769 9.45101 9.45487 9.38496C9.45487 9.37728 9.45487 9.36864 9.44802 9.36192L6.20383 4.59168L10.7439 3.63168C10.8379 3.8779 11.0009 4.10155 11.2193 4.28382C11.4376 4.46608 11.7049 4.60162 11.9986 4.67904V15.36H10.5976C10.0601 15.3605 9.54487 15.5401 9.16483 15.8594C8.78478 16.1786 8.57101 16.6115 8.57041 17.063V17.28H3.99952C2.93878 17.28 1.92149 17.634 1.17143 18.2641C0.421377 18.8942 0 19.7489 0 20.64C0 21.5311 0.421377 22.3858 1.17143 23.0159C1.92149 23.646 2.93878 24 3.99952 24H23.4258C23.5773 24 23.7226 23.9494 23.8298 23.8594C23.9369 23.7694 23.9971 23.6473 23.9971 23.52C23.9971 23.3927 23.9369 23.2706 23.8298 23.1806C23.7226 23.0906 23.5773 23.04 23.4258 23.04H22.8544V18.24ZM22.4408 9.12H17.1728L19.8011 5.24736L22.4408 9.12ZM19.8068 12.1603C19.0996 12.1585 18.4152 11.9498 17.8711 11.5702C17.3271 11.1906 16.9574 10.6637 16.8254 10.08H22.7893C22.6571 10.6638 22.2871 11.1907 21.7429 11.5703C21.1987 11.9499 20.5141 12.1585 19.8068 12.1603ZM7.96705 9.12H2.69911L5.32737 5.24736L7.96705 9.12ZM5.33879 12.1603C4.63045 12.1596 3.94455 11.9515 3.39915 11.5718C2.85374 11.1921 2.48294 10.6646 2.35058 10.08H8.31444C8.1825 10.6637 7.81277 11.1906 7.26873 11.5702C6.72469 11.9498 6.0403 12.1585 5.33308 12.1603H5.33879ZM12.5699 2.47968C12.7719 2.48047 12.9658 2.54633 13.1116 2.66368C13.2575 2.78103 13.3442 2.94093 13.3538 3.1104C13.3538 3.12096 13.3618 3.1296 13.3641 3.14016H13.3561C13.3558 3.31516 13.2729 3.48291 13.1254 3.60657C12.978 3.73023 12.7782 3.79968 12.5699 3.79968C12.4615 3.79758 12.3548 3.77699 12.2562 3.73917C12.1575 3.70134 12.0691 3.64706 11.9962 3.57963C11.9233 3.5122 11.8675 3.43303 11.8321 3.34692C11.7968 3.26081 11.7827 3.16956 11.7906 3.07872C11.8062 2.91457 11.8953 2.76149 12.0399 2.65033C12.1845 2.53916 12.3739 2.47819 12.5699 2.47968ZM9.71313 17.063C9.71343 16.8661 9.80671 16.6772 9.97252 16.5379C10.1383 16.3986 10.3631 16.3203 10.5976 16.32H14.5423C14.7768 16.3203 15.0015 16.3986 15.1673 16.5379C15.3332 16.6772 15.4264 16.8661 15.4267 17.063V17.28H9.71313V17.063ZM3.99952 23.04C3.24185 23.04 2.51521 22.7871 1.97946 22.3371C1.4437 21.887 1.14272 21.2765 1.14272 20.64C1.14272 20.0035 1.4437 19.393 1.97946 18.9429C2.51521 18.4929 3.24185 18.24 3.99952 18.24H21.7117V19.2H3.99952C3.84799 19.2 3.70266 19.2506 3.59551 19.3406C3.48836 19.4306 3.42816 19.5527 3.42816 19.68C3.42816 19.8073 3.48836 19.9294 3.59551 20.0194C3.70266 20.1094 3.84799 20.16 3.99952 20.16H21.7117V21.12H3.99952C3.84799 21.12 3.70266 21.1706 3.59551 21.2606C3.48836 21.3506 3.42816 21.4727 3.42816 21.6C3.42816 21.7273 3.48836 21.8494 3.59551 21.9394C3.70266 22.0294 3.84799 22.08 3.99952 22.08H21.7117V23.04H3.99952Z" fill="black"/>
</svg>
